<svg width="23" height="23" viewBox="0 0 23 23" fill="none" xmlns="http://www.w3.org/2000/svg">
<path d="M22.9583 11.5L20.4167 8.59375L20.7708 4.75L17.0104 3.89583L15.0417 0.5625L11.5 2.08333L7.95833 0.5625L5.98958 3.88542L2.22917 4.72917L2.58333 8.58333L0.041666 11.5L2.58333 14.4062L2.22917 18.2604L5.98958 19.1146L7.95833 22.4375L11.5 20.9062L15.0417 22.4271L17.0104 19.1042L20.7708 18.25L20.4167 14.4062L22.9583 11.5ZM8.77083 15.6771L6.29167 13.1771C5.88542 12.7708 5.88542 12.1146 6.29167 11.7083L6.36458 11.6354C6.77083 11.2292 7.4375 11.2292 7.84375 11.6354L9.52083 13.3229L14.8854 7.94792C15.2917 7.54167 15.9583 7.54167 16.3646 7.94792L16.4375 8.02083C16.8437 8.42708 16.8437 9.08333 16.4375 9.48958L10.2708 15.6771C9.84375 16.0833 9.1875 16.0833 8.77083 15.6771Z" fill="#3965FF"/>
</svg>
